<svg xmlns="http://www.w3.org/2000/svg" xmlns:xlink="http://www.w3.org/1999/xlink" width="385" height="75" viewBox="0 0 385 75">
  <defs>
    <filter id="Rectangle_133" x="0" y="0" width="385" height="75" filterUnits="userSpaceOnUse">
      <feOffset dy="4" input="SourceAlpha"/>
      <feGaussianBlur stdDeviation="2.5" result="blur"/>
      <feFlood flood-opacity="0.141"/>
      <feComposite operator="in" in2="blur"/>
      <feComposite in="SourceGraphic"/>
    </filter>
    <clipPath id="clip-path">
      <rect id="Rectangle_132" data-name="Rectangle 132" width="30" height="30" fill="#fece00"/>
    </clipPath>
  </defs>
  <g id="Licenseplate" transform="translate(7.5 3.5)">
    <g transform="matrix(1, 0, 0, 1, -7.5, -3.5)" filter="url(#Rectangle_133)">
      <g id="Rectangle_133-2" data-name="Rectangle 133" transform="translate(7.5 3.5)" fill="#fff" stroke="#1a1a17" stroke-width="2">
        <rect width="370" height="60" rx="5" stroke="none"/>
        <rect x="1" y="1" width="368" height="58" rx="4" fill="none"/>
      </g>
    </g>
    <path id="Rectangle_131" data-name="Rectangle 131" d="M2,0H50a0,0,0,0,1,0,0V56a0,0,0,0,1,0,0H2a2,2,0,0,1-2-2V2A2,2,0,0,1,2,0Z" transform="translate(2 2)" fill="#00309a"/>
    <g id="Mask_Group_51" data-name="Mask Group 51" transform="translate(12 15)" clip-path="url(#clip-path)">
      <g id="noun_europe_2658566" transform="translate(0 0.099)">
        <g id="Group_203" data-name="Group 203" transform="translate(12.948)">
          <g id="Group_201" data-name="Group 201" transform="translate(1.387)">
            <path id="Path_507" data-name="Path 507" d="M22.014,7.106l-.665,2.056,1.026.33Z" transform="translate(-21.349 -7.106)" fill="#fece00"/>
            <path id="Path_508" data-name="Path 508" d="M22.014,7.106l.665,2.056-1.026.33Z" transform="translate(-21.349 -7.106)" fill="#fece00"/>
          </g>
          <g id="Group_202" data-name="Group 202" transform="translate(1.559 1.493)">
            <path id="Path_509" data-name="Path 509" d="M24.065,8.6H21.908V9.686Z" transform="translate(-21.52 -8.598)" fill="#fece00"/>
            <path id="Path_510" data-name="Path 510" d="M24.065,8.6,22.3,9.866l-.634-.881Z" transform="translate(-21.52 -8.598)" fill="#fece00"/>
            <path id="Path_511" data-name="Path 511" d="M23.281,11.007l-.665-2.052-1.043.339Z" transform="translate(-21.52 -8.598)" fill="#fece00"/>
            <path id="Path_512" data-name="Path 512" d="M23.281,11.007,21.52,9.739l.634-.881Z" transform="translate(-21.52 -8.598)" fill="#fece00"/>
          </g>
          <path id="Path_513" data-name="Path 513" d="M19.962,8.6h2.157V9.686Z" transform="translate(-19.962 -7.106)" fill="#fece00"/>
          <path id="Path_514" data-name="Path 514" d="M19.962,8.6l1.761,1.268.634-.881Z" transform="translate(-19.962 -7.106)" fill="#fece00"/>
          <path id="Path_515" data-name="Path 515" d="M20.746,11.007l.665-2.052,1.026.335Z" transform="translate(-19.962 -7.106)" fill="#fece00"/>
          <path id="Path_516" data-name="Path 516" d="M20.746,11.007l1.761-1.268-.634-.881Z" transform="translate(-19.962 -7.106)" fill="#fece00"/>
        </g>
        <path id="Path_517" data-name="Path 517" d="M22.014,33.02l-.665,2.052,1.026.335Z" transform="translate(-7.014 -7.106)" fill="#fece00"/>
        <path id="Path_518" data-name="Path 518" d="M22.014,33.02l.665,2.052-1.026.335Z" transform="translate(-7.014 -7.106)" fill="#fece00"/>
        <path id="Path_519" data-name="Path 519" d="M24.065,34.5H21.908v1.079Z" transform="translate(-7.014 -7.106)" fill="#fece00"/>
        <path id="Path_520" data-name="Path 520" d="M24.065,34.5,22.3,35.763l-.634-.881Z" transform="translate(-7.014 -7.106)" fill="#fece00"/>
        <path id="Path_521" data-name="Path 521" d="M23.281,36.908l-.665-2.052-1.043.33Z" transform="translate(-7.014 -7.106)" fill="#fece00"/>
        <path id="Path_522" data-name="Path 522" d="M23.281,36.908,21.52,35.64l.634-.881Z" transform="translate(-7.014 -7.106)" fill="#fece00"/>
        <path id="Path_523" data-name="Path 523" d="M19.962,34.5h2.157v1.079Z" transform="translate(-7.014 -7.106)" fill="#fece00"/>
        <path id="Path_524" data-name="Path 524" d="M19.962,34.5l1.761,1.268.634-.881Z" transform="translate(-7.014 -7.106)" fill="#fece00"/>
        <path id="Path_525" data-name="Path 525" d="M20.746,36.908l.665-2.052,1.026.33Z" transform="translate(-7.014 -7.106)" fill="#fece00"/>
        <path id="Path_526" data-name="Path 526" d="M20.746,36.908l1.761-1.268-.634-.881Z" transform="translate(-7.014 -7.106)" fill="#fece00"/>
        <g id="Group_204" data-name="Group 204" transform="translate(0 1.735)">
          <path id="Path_527" data-name="Path 527" d="M9.065,20.054,8.4,22.106l1.026.335Z" transform="translate(-7.014 -8.841)" fill="#fece00"/>
          <path id="Path_528" data-name="Path 528" d="M9.065,20.054l.669,2.052-1.026.348Z" transform="translate(-7.014 -8.841)" fill="#fece00"/>
          <path id="Path_529" data-name="Path 529" d="M11.117,21.547H8.959v1.079Z" transform="translate(-7.014 -8.841)" fill="#fece00"/>
          <path id="Path_530" data-name="Path 530" d="M11.117,21.547,9.356,22.815l-.634-.881Z" transform="translate(-7.014 -8.841)" fill="#fece00"/>
          <path id="Path_531" data-name="Path 531" d="M10.333,23.959l-.647-2.052-1.026.335Z" transform="translate(-7.014 -8.841)" fill="#fece00"/>
          <path id="Path_532" data-name="Path 532" d="M10.333,23.959,8.572,22.692l.634-.881Z" transform="translate(-7.014 -8.841)" fill="#fece00"/>
          <path id="Path_533" data-name="Path 533" d="M7.014,21.547H9.171v1.079Z" transform="translate(-7.014 -8.841)" fill="#fece00"/>
          <path id="Path_534" data-name="Path 534" d="M7.014,21.547l1.761,1.268.634-.881Z" transform="translate(-7.014 -8.841)" fill="#fece00"/>
          <path id="Path_535" data-name="Path 535" d="M7.8,23.959l.669-2.052,1.026.335Z" transform="translate(-7.014 -8.841)" fill="#fece00"/>
          <path id="Path_536" data-name="Path 536" d="M7.8,23.959l1.761-1.268-.634-.881Z" transform="translate(-7.014 -8.841)" fill="#fece00"/>
          <path id="Path_537" data-name="Path 537" d="M14.269,12.768,16.03,11.5l-.634-.881Z" transform="translate(-7.014 -8.841)" fill="#fece00"/>
          <path id="Path_538" data-name="Path 538" d="M14.269,12.768l.669-2.052,1.026.335Z" transform="translate(-7.014 -8.841)" fill="#fece00"/>
          <path id="Path_539" data-name="Path 539" d="M13.485,10.333,15.247,11.6l.634-.881Z" transform="translate(-7.014 -8.841)" fill="#fece00"/>
          <path id="Path_540" data-name="Path 540" d="M13.485,10.333h2.162v1.079Z" transform="translate(-7.014 -8.841)" fill="#fece00"/>
          <path id="Path_541" data-name="Path 541" d="M15.542,8.841,14.872,10.9l1.026.33Z" transform="translate(-7.014 -8.841)" fill="#fece00"/>
          <path id="Path_542" data-name="Path 542" d="M15.542,8.841l.665,2.056-1.026.33Z" transform="translate(-7.014 -8.841)" fill="#fece00"/>
          <path id="Path_543" data-name="Path 543" d="M16.81,12.768,15.048,11.5l.634-.881Z" transform="translate(-7.014 -8.841)" fill="#fece00"/>
          <path id="Path_544" data-name="Path 544" d="M16.81,12.768l-.669-2.052-1.026.335Z" transform="translate(-7.014 -8.841)" fill="#fece00"/>
          <path id="Path_545" data-name="Path 545" d="M17.611,10.333,15.85,11.6l-.634-.881Z" transform="translate(-7.014 -8.841)" fill="#fece00"/>
          <path id="Path_546" data-name="Path 546" d="M17.611,10.333H15.453v1.079Z" transform="translate(-7.014 -8.841)" fill="#fece00"/>
          <path id="Path_547" data-name="Path 547" d="M12.068,17.488,11.4,15.431l-1.026.335Z" transform="translate(-7.014 -8.841)" fill="#fece00"/>
          <path id="Path_548" data-name="Path 548" d="M12.068,17.488l-1.761-1.272.634-.881Z" transform="translate(-7.014 -8.841)" fill="#fece00"/>
          <path id="Path_549" data-name="Path 549" d="M9.532,17.488l1.761-1.272-.634-.881Z" transform="translate(-7.014 -8.841)" fill="#fece00"/>
          <path id="Path_550" data-name="Path 550" d="M9.532,17.488l.669-2.056,1.026.335Z" transform="translate(-7.014 -8.841)" fill="#fece00"/>
          <path id="Path_551" data-name="Path 551" d="M8.748,15.075l1.761,1.268.634-.881Z" transform="translate(-7.014 -8.841)" fill="#fece00"/>
          <path id="Path_552" data-name="Path 552" d="M8.748,15.075h2.157v1.079Z" transform="translate(-7.014 -8.841)" fill="#fece00"/>
          <path id="Path_553" data-name="Path 553" d="M12.851,15.075,11.09,16.343l-.634-.881Z" transform="translate(-7.014 -8.841)" fill="#fece00"/>
          <path id="Path_554" data-name="Path 554" d="M12.851,15.075H10.694v1.079Z" transform="translate(-7.014 -8.841)" fill="#fece00"/>
          <path id="Path_555" data-name="Path 555" d="M10.8,13.582l.669,2.052-1.026.335Z" transform="translate(-7.014 -8.841)" fill="#fece00"/>
          <path id="Path_556" data-name="Path 556" d="M10.8,13.582l-.674,2.052,1.026.335Z" transform="translate(-7.014 -8.841)" fill="#fece00"/>
          <path id="Path_557" data-name="Path 557" d="M12.851,28.019H10.694V29.1Z" transform="translate(-7.014 -8.841)" fill="#fece00"/>
          <path id="Path_558" data-name="Path 558" d="M12.851,28.019,11.09,29.287l-.634-.881Z" transform="translate(-7.014 -8.841)" fill="#fece00"/>
          <path id="Path_559" data-name="Path 559" d="M12.068,30.431,11.4,28.38l-1.026.335Z" transform="translate(-7.014 -8.841)" fill="#fece00"/>
          <path id="Path_560" data-name="Path 560" d="M12.068,30.431l-1.761-1.268.634-.881Z" transform="translate(-7.014 -8.841)" fill="#fece00"/>
          <path id="Path_561" data-name="Path 561" d="M9.532,30.431l1.761-1.268-.634-.881Z" transform="translate(-7.014 -8.841)" fill="#fece00"/>
          <path id="Path_562" data-name="Path 562" d="M9.532,30.431,10.2,28.38l1.026.335Z" transform="translate(-7.014 -8.841)" fill="#fece00"/>
          <path id="Path_563" data-name="Path 563" d="M10.8,26.531l.669,2.052-1.026.335Z" transform="translate(-7.014 -8.841)" fill="#fece00"/>
          <path id="Path_564" data-name="Path 564" d="M10.8,26.531l-.674,2.052,1.026.335Z" transform="translate(-7.014 -8.841)" fill="#fece00"/>
          <path id="Path_565" data-name="Path 565" d="M8.748,28.019h2.157V29.1Z" transform="translate(-7.014 -8.841)" fill="#fece00"/>
          <path id="Path_566" data-name="Path 566" d="M8.748,28.019l1.761,1.268.634-.881Z" transform="translate(-7.014 -8.841)" fill="#fece00"/>
          <path id="Path_567" data-name="Path 567" d="M17.611,32.76H15.453v1.079Z" transform="translate(-7.014 -8.841)" fill="#fece00"/>
          <path id="Path_568" data-name="Path 568" d="M17.611,32.76,15.85,34.028l-.634-.881Z" transform="translate(-7.014 -8.841)" fill="#fece00"/>
          <path id="Path_569" data-name="Path 569" d="M16.81,35.173l-.669-2.052-1.026.339Z" transform="translate(-7.014 -8.841)" fill="#fece00"/>
          <path id="Path_570" data-name="Path 570" d="M16.81,35.173l-1.761-1.268.634-.881Z" transform="translate(-7.014 -8.841)" fill="#fece00"/>
          <path id="Path_571" data-name="Path 571" d="M14.269,35.173l1.761-1.268-.634-.881Z" transform="translate(-7.014 -8.841)" fill="#fece00"/>
          <path id="Path_572" data-name="Path 572" d="M14.269,35.173l.669-2.052,1.026.33Z" transform="translate(-7.014 -8.841)" fill="#fece00"/>
          <path id="Path_573" data-name="Path 573" d="M15.542,31.259l.665,2.052-1.026.335Z" transform="translate(-7.014 -8.841)" fill="#fece00"/>
          <path id="Path_574" data-name="Path 574" d="M15.542,31.259l-.669,2.052,1.026.335Z" transform="translate(-7.014 -8.841)" fill="#fece00"/>
          <path id="Path_575" data-name="Path 575" d="M13.485,32.76h2.162v1.079Z" transform="translate(-7.014 -8.841)" fill="#fece00"/>
          <path id="Path_576" data-name="Path 576" d="M13.485,32.76l1.761,1.268.634-.881Z" transform="translate(-7.014 -8.841)" fill="#fece00"/>
        </g>
        <path id="Path_577" data-name="Path 577" d="M34.962,20.054l.665,2.052-1.026.348Z" transform="translate(-7.014 -7.106)" fill="#fece00"/>
        <path id="Path_578" data-name="Path 578" d="M34.962,20.054l-.669,2.052,1.026.335Z" transform="translate(-7.014 -7.106)" fill="#fece00"/>
        <path id="Path_579" data-name="Path 579" d="M32.91,21.547h2.157v1.079Z" transform="translate(-7.014 -7.106)" fill="#fece00"/>
        <path id="Path_580" data-name="Path 580" d="M32.91,21.547l1.761,1.268.634-.881Z" transform="translate(-7.014 -7.106)" fill="#fece00"/>
        <path id="Path_581" data-name="Path 581" d="M33.694,23.959l.647-2.052,1.026.335Z" transform="translate(-7.014 -7.106)" fill="#fece00"/>
        <path id="Path_582" data-name="Path 582" d="M33.694,23.959l1.761-1.268-.634-.881Z" transform="translate(-7.014 -7.106)" fill="#fece00"/>
        <path id="Path_583" data-name="Path 583" d="M37.014,21.547H34.856v1.079Z" transform="translate(-7.014 -7.106)" fill="#fece00"/>
        <path id="Path_584" data-name="Path 584" d="M37.014,21.547l-1.761,1.268-.634-.881Z" transform="translate(-7.014 -7.106)" fill="#fece00"/>
        <path id="Path_585" data-name="Path 585" d="M36.23,23.959l-.669-2.052-1.026.335Z" transform="translate(-7.014 -7.106)" fill="#fece00"/>
        <path id="Path_586" data-name="Path 586" d="M36.23,23.959l-1.761-1.268.634-.881Z" transform="translate(-7.014 -7.106)" fill="#fece00"/>
        <path id="Path_587" data-name="Path 587" d="M29.758,12.768,28,11.5l.634-.881Z" transform="translate(-7.014 -7.106)" fill="#fece00"/>
        <path id="Path_588" data-name="Path 588" d="M29.758,12.768l-.669-2.052-1.026.335Z" transform="translate(-7.014 -7.106)" fill="#fece00"/>
        <path id="Path_589" data-name="Path 589" d="M30.542,10.333,28.78,11.6l-.634-.881Z" transform="translate(-7.014 -7.106)" fill="#fece00"/>
        <path id="Path_590" data-name="Path 590" d="M30.542,10.333H28.38v1.079Z" transform="translate(-7.014 -7.106)" fill="#fece00"/>
        <path id="Path_591" data-name="Path 591" d="M28.485,8.841l.669,2.056-1.026.33Z" transform="translate(-7.014 -7.106)" fill="#fece00"/>
        <path id="Path_592" data-name="Path 592" d="M28.485,8.841,27.821,10.9l1.026.33Z" transform="translate(-7.014 -7.106)" fill="#fece00"/>
        <path id="Path_593" data-name="Path 593" d="M27.217,12.768,28.979,11.5l-.634-.881Z" transform="translate(-7.014 -7.106)" fill="#fece00"/>
        <path id="Path_594" data-name="Path 594" d="M27.217,12.768l.669-2.052,1.026.335Z" transform="translate(-7.014 -7.106)" fill="#fece00"/>
        <path id="Path_595" data-name="Path 595" d="M26.416,10.333,28.177,11.6l.634-.881Z" transform="translate(-7.014 -7.106)" fill="#fece00"/>
        <path id="Path_596" data-name="Path 596" d="M26.416,10.333h2.157v1.079Z" transform="translate(-7.014 -7.106)" fill="#fece00"/>
        <path id="Path_597" data-name="Path 597" d="M31.959,17.488l.665-2.056,1.026.335Z" transform="translate(-7.014 -7.106)" fill="#fece00"/>
        <path id="Path_598" data-name="Path 598" d="M31.959,17.488l1.761-1.272-.634-.881Z" transform="translate(-7.014 -7.106)" fill="#fece00"/>
        <path id="Path_599" data-name="Path 599" d="M34.5,17.488l-1.761-1.272.634-.881Z" transform="translate(-7.014 -7.106)" fill="#fece00"/>
        <path id="Path_600" data-name="Path 600" d="M34.5,17.488l-.669-2.056-1.026.335Z" transform="translate(-7.014 -7.106)" fill="#fece00"/>
        <path id="Path_601" data-name="Path 601" d="M35.279,15.075l-1.761,1.268-.634-.881Z" transform="translate(-7.014 -7.106)" fill="#fece00"/>
        <path id="Path_602" data-name="Path 602" d="M35.279,15.075H33.122v1.079Z" transform="translate(-7.014 -7.106)" fill="#fece00"/>
        <path id="Path_603" data-name="Path 603" d="M31.176,15.075l1.761,1.268.634-.881Z" transform="translate(-7.014 -7.106)" fill="#fece00"/>
        <path id="Path_604" data-name="Path 604" d="M31.176,15.075h2.157v1.079Z" transform="translate(-7.014 -7.106)" fill="#fece00"/>
        <path id="Path_605" data-name="Path 605" d="M33.227,13.582l-.647,2.052,1.026.335Z" transform="translate(-7.014 -7.106)" fill="#fece00"/>
        <path id="Path_606" data-name="Path 606" d="M33.227,13.582l.674,2.052-1.026.335Z" transform="translate(-7.014 -7.106)" fill="#fece00"/>
        <path id="Path_607" data-name="Path 607" d="M31.176,28.019h2.157V29.1Z" transform="translate(-7.014 -7.106)" fill="#fece00"/>
        <path id="Path_608" data-name="Path 608" d="M31.176,28.019l1.761,1.268.634-.881Z" transform="translate(-7.014 -7.106)" fill="#fece00"/>
        <path id="Path_609" data-name="Path 609" d="M31.959,30.431l.665-2.052,1.026.335Z" transform="translate(-7.014 -7.106)" fill="#fece00"/>
        <path id="Path_610" data-name="Path 610" d="M31.959,30.431l1.761-1.268-.634-.881Z" transform="translate(-7.014 -7.106)" fill="#fece00"/>
        <path id="Path_611" data-name="Path 611" d="M34.5,30.431l-1.761-1.268.634-.881Z" transform="translate(-7.014 -7.106)" fill="#fece00"/>
        <path id="Path_612" data-name="Path 612" d="M34.5,30.431l-.669-2.052-1.026.335Z" transform="translate(-7.014 -7.106)" fill="#fece00"/>
        <path id="Path_613" data-name="Path 613" d="M33.227,26.531l-.647,2.052,1.026.335Z" transform="translate(-7.014 -7.106)" fill="#fece00"/>
        <path id="Path_614" data-name="Path 614" d="M33.227,26.531l.674,2.052-1.026.335Z" transform="translate(-7.014 -7.106)" fill="#fece00"/>
        <path id="Path_615" data-name="Path 615" d="M35.279,28.019H33.122V29.1Z" transform="translate(-7.014 -7.106)" fill="#fece00"/>
        <path id="Path_616" data-name="Path 616" d="M35.279,28.019l-1.761,1.268-.634-.881Z" transform="translate(-7.014 -7.106)" fill="#fece00"/>
        <path id="Path_617" data-name="Path 617" d="M26.416,32.76h2.157v1.079Z" transform="translate(-7.014 -7.106)" fill="#fece00"/>
        <path id="Path_618" data-name="Path 618" d="M26.416,32.76l1.761,1.268.634-.881Z" transform="translate(-7.014 -7.106)" fill="#fece00"/>
        <path id="Path_619" data-name="Path 619" d="M27.217,35.173l.669-2.052,1.026.33Z" transform="translate(-7.014 -7.106)" fill="#fece00"/>
        <path id="Path_620" data-name="Path 620" d="M27.217,35.173l1.761-1.268-.634-.881Z" transform="translate(-7.014 -7.106)" fill="#fece00"/>
        <path id="Path_621" data-name="Path 621" d="M29.758,35.173,28,33.905l.634-.881Z" transform="translate(-7.014 -7.106)" fill="#fece00"/>
        <path id="Path_622" data-name="Path 622" d="M29.758,35.173l-.669-2.052-1.026.339Z" transform="translate(-7.014 -7.106)" fill="#fece00"/>
        <path id="Path_623" data-name="Path 623" d="M28.485,31.259l-.665,2.052,1.026.335Z" transform="translate(-7.014 -7.106)" fill="#fece00"/>
        <path id="Path_624" data-name="Path 624" d="M28.485,31.259l.669,2.052-1.026.335Z" transform="translate(-7.014 -7.106)" fill="#fece00"/>
        <path id="Path_625" data-name="Path 625" d="M30.542,32.76H28.38v1.079Z" transform="translate(-7.014 -7.106)" fill="#fece00"/>
        <path id="Path_626" data-name="Path 626" d="M30.542,32.76,28.78,34.028l-.634-.881Z" transform="translate(-7.014 -7.106)" fill="#fece00"/>
      </g>
    </g>
    <g id="Title" transform="translate(75.9 14)">
      <text id="Icons" fill="#5a5b5e" font-size="30" font-family="Arial-BoldMT, Arial" font-weight="700"><tspan x="0" y="27">K</tspan></text>
    </g>
    <g id="Title-2" data-name="Title" transform="translate(138.52 14)">
      <text id="Icons-2" data-name="Icons" fill="#5a5b5e" font-size="30" font-family="Arial-BoldMT, Arial" font-weight="700"><tspan x="0" y="27">SC</tspan></text>
    </g>
    <g id="Title-3" data-name="Title" transform="translate(232.591 14)">
      <text id="Icons-3" data-name="Icons" fill="#5a5b5e" font-size="30" font-family="Arial-BoldMT, Arial" font-weight="700"><tspan x="0" y="27">2275</tspan></text>
    </g>
  </g>
</svg>
