<svg xmlns="http://www.w3.org/2000/svg" data-name="Layer 1" viewBox="0 0 100 125" x="0px" y="0px"><title>1405</title><g><g><path d="M50,16.14l-1.51,4.67,2.33.75Z"/><path d="M50,16.14l1.51,4.67-2.33.75Z"/></g><g><path d="M54.66,19.53h-4.9V22Z"/><path d="M54.66,19.53l-4,2.88-1.44-2Z"/><path d="M52.88,25l-1.51-4.66L49,21.11Z"/><path d="M52.88,25l-4-2.88,1.44-2Z"/></g><path d="M45.34,19.53h4.9V22Z"/><path d="M45.34,19.53l4,2.88,1.44-2Z"/><path d="M47.12,25l1.51-4.66,2.33.76Z"/><path d="M47.12,25l4-2.88-1.44-2Z"/></g><path d="M50,75l-1.51,4.66,2.33.76Z"/><path d="M50,75l1.51,4.66-2.33.76Z"/><path d="M54.66,78.35h-4.9V80.8Z"/><path d="M54.66,78.35l-4,2.88-1.44-2Z"/><path d="M52.88,83.83l-1.51-4.66L49,79.92Z"/><path d="M52.88,83.83l-4-2.88,1.44-2Z"/><path d="M45.34,78.35h4.9V80.8Z"/><path d="M45.34,78.35l4,2.88,1.44-2Z"/><path d="M47.12,83.83l1.51-4.66,2.33.75Z"/><path d="M47.12,83.83l4-2.88-1.44-2Z"/><g><path d="M20.59,45.55l-1.51,4.66,2.33.76Z"/><path d="M20.59,45.55l1.52,4.66L19.78,51Z"/><path d="M25.25,48.94h-4.9v2.45Z"/><path d="M25.25,48.94l-4,2.88-1.44-2Z"/><path d="M23.47,54.42,22,49.76l-2.33.76Z"/><path d="M23.47,54.42l-4-2.88,1.44-2Z"/><path d="M15.93,48.94h4.9v2.45Z"/><path d="M15.93,48.94l4,2.88,1.44-2Z"/><path d="M17.71,54.42l1.52-4.66,2.33.76Z"/><path d="M17.71,54.42l4-2.88-1.44-2Z"/><path d="M32.41,29l4-2.88-1.44-2Z"/><path d="M32.41,29l1.52-4.66,2.33.76Z"/><path d="M30.63,23.47l4,2.88,1.44-2Z"/><path d="M30.63,23.47h4.91v2.45Z"/><path d="M35.3,20.08l-1.52,4.67,2.33.75Z"/><path d="M35.3,20.08l1.51,4.67-2.33.75Z"/><path d="M38.18,29l-4-2.88,1.44-2Z"/><path d="M38.18,29l-1.52-4.66-2.33.76Z"/><path d="M40,23.47l-4,2.88-1.44-2Z"/><path d="M40,23.47h-4.9v2.45Z"/><path d="M27.41,39.72,25.9,35.05l-2.33.76Z"/><path d="M27.41,39.72l-4-2.89,1.44-2Z"/><path d="M21.65,39.72l4-2.89-1.44-2Z"/><path d="M21.65,39.72l1.52-4.67,2.33.76Z"/><path d="M19.87,34.24l4,2.88,1.44-2Z"/><path d="M19.87,34.24h4.9v2.45Z"/><path d="M29.19,34.24l-4,2.88-1.44-2Z"/><path d="M29.19,34.24h-4.9v2.45Z"/><path d="M24.53,30.85l1.52,4.66-2.33.76Z"/><path d="M24.53,30.85,23,35.51l2.33.76Z"/><path d="M29.19,63.64h-4.9v2.45Z"/><path d="M29.19,63.64l-4,2.88-1.44-2Z"/><path d="M27.41,69.12,25.9,64.46l-2.33.76Z"/><path d="M27.41,69.12l-4-2.88,1.44-2Z"/><path d="M21.65,69.12l4-2.88-1.44-2Z"/><path d="M21.65,69.12l1.52-4.66,2.33.76Z"/><path d="M24.53,60.26l1.52,4.66-2.33.76Z"/><path d="M24.53,60.26,23,64.92l2.33.76Z"/><path d="M19.87,63.64h4.9v2.45Z"/><path d="M19.87,63.64l4,2.88,1.44-2Z"/><path d="M40,74.41h-4.9v2.45Z"/><path d="M40,74.41l-4,2.88-1.44-2Z"/><path d="M38.18,79.89l-1.52-4.66L34.33,76Z"/><path d="M38.18,79.89l-4-2.88,1.44-2Z"/><path d="M32.41,79.89l4-2.88-1.44-2Z"/><path d="M32.41,79.89l1.52-4.66,2.33.75Z"/><path d="M35.3,71l1.51,4.66-2.33.76Z"/><path d="M35.3,71l-1.52,4.66,2.33.76Z"/><path d="M30.63,74.41h4.91v2.45Z"/><path d="M30.63,74.41l4,2.88,1.44-2Z"/></g><path d="M79.41,45.55l1.51,4.66L78.59,51Z"/><path d="M79.41,45.55l-1.52,4.66,2.33.76Z"/><path d="M74.75,48.94h4.9v2.45Z"/><path d="M74.75,48.94l4,2.88,1.44-2Z"/><path d="M76.53,54.42,78,49.76l2.33.76Z"/><path d="M76.53,54.42l4-2.88-1.44-2Z"/><path d="M84.07,48.94h-4.9v2.45Z"/><path d="M84.07,48.94l-4,2.88-1.44-2Z"/><path d="M82.29,54.42l-1.52-4.66-2.33.76Z"/><path d="M82.29,54.42l-4-2.88,1.44-2Z"/><path d="M67.59,29l-4-2.88,1.44-2Z"/><path d="M67.59,29l-1.52-4.66-2.33.76Z"/><path d="M69.37,23.47l-4,2.88-1.44-2Z"/><path d="M69.37,23.47H64.46v2.45Z"/><path d="M64.7,20.08l1.52,4.67-2.33.75Z"/><path d="M64.7,20.08l-1.51,4.67,2.33.75Z"/><path d="M61.82,29l4-2.88-1.44-2Z"/><path d="M61.82,29l1.52-4.66,2.33.76Z"/><path d="M60,23.47l4,2.88,1.44-2Z"/><path d="M60,23.47h4.9v2.45Z"/><path d="M72.59,39.72l1.51-4.67,2.33.76Z"/><path d="M72.59,39.72l4-2.89-1.44-2Z"/><path d="M78.35,39.72l-4-2.89,1.44-2Z"/><path d="M78.35,39.72l-1.52-4.67-2.33.76Z"/><path d="M80.13,34.24l-4,2.88-1.44-2Z"/><path d="M80.13,34.24h-4.9v2.45Z"/><path d="M70.81,34.24l4,2.88,1.44-2Z"/><path d="M70.81,34.24h4.9v2.45Z"/><path d="M75.47,30.85,74,35.51l2.33.76Z"/><path d="M75.47,30.85,77,35.51l-2.33.76Z"/><path d="M70.81,63.64h4.9v2.45Z"/><path d="M70.81,63.64l4,2.88,1.44-2Z"/><path d="M72.59,69.12l1.51-4.66,2.33.76Z"/><path d="M72.59,69.12l4-2.88-1.44-2Z"/><path d="M78.35,69.12l-4-2.88,1.44-2Z"/><path d="M78.35,69.12l-1.52-4.66-2.33.76Z"/><path d="M75.47,60.26,74,64.92l2.33.76Z"/><path d="M75.47,60.26,77,64.92l-2.33.76Z"/><path d="M80.13,63.64h-4.9v2.45Z"/><path d="M80.13,63.64l-4,2.88-1.44-2Z"/><path d="M60,74.41h4.9v2.45Z"/><path d="M60,74.41l4,2.88,1.44-2Z"/><path d="M61.82,79.89l1.52-4.66,2.33.75Z"/><path d="M61.82,79.89l4-2.88-1.44-2Z"/><path d="M67.59,79.89l-4-2.88,1.44-2Z"/><path d="M67.59,79.89l-1.52-4.66L63.74,76Z"/><path d="M64.7,71l-1.51,4.66,2.33.76Z"/><path d="M64.7,71l1.52,4.66-2.33.76Z"/><path d="M69.37,74.41H64.46v2.45Z"/><path d="M69.37,74.41l-4,2.88-1.44-2Z"/></svg>