<svg xmlns:x="http://ns.adobe.com/Extensibility/1.0/" xmlns:i="http://ns.adobe.com/AdobeIllustrator/10.0/" xmlns:graph="http://ns.adobe.com/Graphs/1.0/" xmlns="http://www.w3.org/2000/svg" xmlns:xlink="http://www.w3.org/1999/xlink" version="1.1" x="0px" y="0px" viewBox="0 0 100 125" enable-background="new 0 0 100 100" xml:space="preserve"><metadata><sfw xmlns="http://ns.adobe.com/SaveForWeb/1.0/"><slices/><sliceSourceBounds height="100" width="100" x="0" y="-100" bottomLeftOrigin="true"/></sfw></metadata><rect fill="none" width="100" height="100"/><g><path d="M22.47,33.487c0,0-2.519,0.244-4.224,2.6c0,0-6.012,0.65-8.043,5.524L9.931,42.94v-0.089c-0.526,0-0.996,0.183-1.395,0.543   c-0.315,0.284-0.587,0.678-0.807,1.172c-0.235,0.528-0.36,1.05-0.421,1.371H6.964c-0.208,0-0.376,0.169-0.376,0.376v2.416   c0,0.208,0.168,0.377,0.376,0.377h0.777c0.003,0,0.006,0,0.009,0L8.5,49.961l-0.004,0.019v8.043c0,0-0.163,5.931,2.031,5.931h2.763   c0,0-0.813-5.85,5.93-5.85l5.119-0.081V36.006C24.339,36.006,24.582,33.487,22.47,33.487z M8.544,49.743l-0.606-0.692   c0.108-0.065,0.18-0.186,0.18-0.321v-2.416c0-0.207-0.168-0.376-0.376-0.376H7.49c0.062-0.315,0.183-0.809,0.401-1.299   c0.472-1.061,1.153-1.603,2.022-1.609L8.544,49.743z M15.995,47.735c0,0-0.074,0.563-0.439,0.984l-3.819,3.205h-1.279   c0,0-0.549,0.041-0.549-0.568v-1.402l1.219-6.643c0,0,0.102-0.533,0.549-0.533h4.318V47.735z M19.352,47.847   c0,0.221-0.179,0.401-0.402,0.401h-1.684c-0.222,0-0.402-0.181-0.402-0.401v-4.529c0-0.222,0.181-0.402,0.402-0.402h1.684   c0.223,0,0.402,0.181,0.402,0.402V47.847z"/><path d="M18.95,42.966h-1.684c-0.194,0-0.352,0.157-0.352,0.352v4.529c0,0.193,0.158,0.352,0.352,0.352h1.684   c0.194,0,0.352-0.158,0.352-0.352v-4.529C19.301,43.123,19.144,42.966,18.95,42.966z"/><path d="M18.505,59.336c-2.22,0-4.026,1.807-4.026,4.026c0,2.221,1.806,4.026,4.026,4.026c2.22,0,4.026-1.806,4.026-4.026   C22.531,61.143,20.725,59.336,18.505,59.336z M18.505,64.961c-0.882,0-1.598-0.716-1.598-1.599s0.716-1.598,1.598-1.598   c0.883,0,1.598,0.715,1.598,1.598S19.388,64.961,18.505,64.961z"/><path d="M93.035,32.611H25.857c-0.208,0-0.377,0.168-0.377,0.377v24.68v0.026v5.291c0,0.209,0.169,0.377,0.377,0.377h7.33   c0-0.586,0.114-1.154,0.341-1.69c0.219-0.517,0.532-0.98,0.93-1.38c0.398-0.398,0.863-0.712,1.38-0.93   c0.535-0.227,1.104-0.342,1.69-0.342c0.586,0,1.154,0.115,1.69,0.342c0.517,0.218,0.981,0.531,1.38,0.93   c0.398,0.399,0.712,0.863,0.93,1.38c0.227,0.536,0.342,1.104,0.342,1.69h3.633c0.208,0,0.377-0.168,0.377-0.377v-4.914h2.284v4.659   h0.297v-0.867h2.181v0.867h0.297v-4.659h1.992v4.659h0.297v-0.867h2.182v0.867h0.297v-4.659h2.169l2.514,3.745   c0.018-0.048,0.037-0.097,0.058-0.145c0.218-0.517,0.531-0.98,0.93-1.38c0.399-0.398,0.863-0.712,1.38-0.93   c0.536-0.227,1.104-0.342,1.69-0.342c0.586,0,1.155,0.115,1.689,0.342c0.518,0.218,0.982,0.531,1.38,0.93   c0.399,0.399,0.712,0.863,0.931,1.38c0.145,0.341,0.243,0.695,0.296,1.059h1.65c0.053-0.363,0.151-0.718,0.296-1.059   c0.219-0.517,0.531-0.98,0.931-1.38c0.397-0.398,0.862-0.712,1.38-0.93c0.535-0.227,1.104-0.342,1.689-0.342   c0.587,0,1.155,0.115,1.69,0.342c0.518,0.218,0.981,0.531,1.38,0.93c0.399,0.399,0.712,0.863,0.931,1.38   c0.144,0.341,0.242,0.695,0.296,1.059h1.487c0.053-0.363,0.151-0.718,0.296-1.059c0.218-0.517,0.532-0.98,0.93-1.38   c0.399-0.398,0.863-0.712,1.38-0.93c0.536-0.227,1.105-0.342,1.69-0.342c0.586,0,1.155,0.115,1.69,0.342   c0.517,0.218,0.981,0.531,1.38,0.93c0.398,0.399,0.712,0.863,0.931,1.38c0.021,0.048,0.039,0.097,0.058,0.145l2.514-3.745h1.692   c0.209,0,0.377-0.168,0.377-0.377V32.988C93.412,32.779,93.244,32.611,93.035,32.611z M50.644,59.155h-2.181v-0.542h2.181V59.155z    M50.644,59.968h-2.181v-0.542h2.181V59.968z M50.644,60.781h-2.181v-0.543h2.181V60.781z M48.462,61.593v-0.541h2.181v0.541   H48.462z M50.644,58.343h-2.181v-0.271h2.181V58.343z M55.411,59.155h-2.182v-0.542h2.182V59.155z M55.411,59.968h-2.182v-0.542   h2.182V59.968z M55.411,60.781h-2.182v-0.543h2.182V60.781z M53.229,61.593v-0.541h2.182v0.541H53.229z M55.411,58.343h-2.182   v-0.271h2.182V58.343z"/><path d="M37.529,59.336c-2.22,0-4.026,1.807-4.026,4.026c0,2.221,1.806,4.026,4.026,4.026c2.22,0,4.026-1.806,4.026-4.026   C41.555,61.143,39.749,59.336,37.529,59.336z M37.529,64.961c-0.883,0-1.598-0.716-1.598-1.599s0.715-1.598,1.598-1.598   s1.598,0.715,1.598,1.598S38.412,64.961,37.529,64.961z"/><path d="M64.448,59.336c-1.796,0-3.32,1.183-3.838,2.809c-0.122,0.385-0.188,0.793-0.188,1.218c0,2.221,1.807,4.026,4.026,4.026   s4.026-1.806,4.026-4.026c0-0.215-0.018-0.426-0.05-0.632C68.12,60.81,66.453,59.336,64.448,59.336z M64.462,64.961   c-0.883,0-1.599-0.716-1.599-1.599c0-0.225,0.047-0.438,0.13-0.632c0.245-0.568,0.811-0.966,1.469-0.966s1.223,0.397,1.468,0.966   c0.084,0.193,0.13,0.407,0.13,0.632C66.06,64.245,65.345,64.961,64.462,64.961z"/><path d="M74.69,59.336c-2.005,0-3.672,1.474-3.976,3.395c-0.033,0.206-0.051,0.417-0.051,0.632c0,2.221,1.807,4.026,4.026,4.026   s4.027-1.806,4.027-4.026c0-0.215-0.018-0.426-0.051-0.632C78.363,60.81,76.696,59.336,74.69,59.336z M74.69,64.961   c-0.882,0-1.598-0.716-1.598-1.599c0-0.225,0.046-0.438,0.13-0.632c0.245-0.568,0.811-0.966,1.468-0.966   c0.658,0,1.224,0.397,1.468,0.966c0.084,0.193,0.131,0.407,0.131,0.632C76.289,64.245,75.573,64.961,74.69,64.961z"/><path d="M84.771,59.336c-2.005,0-3.672,1.474-3.977,3.395c-0.032,0.206-0.049,0.417-0.049,0.632c0,2.221,1.806,4.026,4.025,4.026   s4.026-1.806,4.026-4.026c0-0.425-0.066-0.833-0.188-1.218C88.091,60.519,86.567,59.336,84.771,59.336z M84.771,64.961   c-0.882,0-1.598-0.716-1.598-1.599c0-0.225,0.046-0.438,0.13-0.632c0.244-0.568,0.81-0.966,1.468-0.966s1.224,0.397,1.469,0.966   c0.083,0.193,0.129,0.407,0.129,0.632C86.368,64.245,85.653,64.961,84.771,64.961z"/></g></svg>