<svg xmlns="http://www.w3.org/2000/svg" xmlns:xlink="http://www.w3.org/1999/xlink" version="1.1" x="0px" y="0px" viewBox="0 0 100 125" enable-background="new 0 0 100 100" xml:space="preserve"><polygon fill="#000000" points="33.142,68.226 19.454,60.318 6.785,68.871 18.358,75.523 "/><path fill="#000000" d="M81.03,58.285v0.068l0.011,0.054l0.005,0.021l0.011,0.014l0.02,0.013h0.064h0.007l0.016-0.008l0.035-0.018  l0.043-0.043c0.016-0.016,0.039-0.012,0.057-0.023s0.023-0.034,0.044-0.043l0.023-0.01l0.029-0.036  c0.004-0.005,0.012-0.004,0.016-0.009s0.003-0.011,0.007-0.016l0.052-0.052l0.04-0.066c0.004-0.006,0.013-0.006,0.017-0.012  c0.004-0.007,0.001-0.016,0.006-0.021l0.059-0.073l0.04-0.08l0.021-0.052l0.015-0.086c0.008-0.047,0.026-0.088,0.051-0.125  l0.004-0.007V57.66v-0.098v-0.098c-0.01-0.013-0.004-0.029-0.011-0.044c-0.006-0.01-0.015-0.017-0.019-0.027h-0.062H81.58h-0.001  l-0.024,0.019c-0.009,0.007-0.021,0.004-0.03,0.01c-0.007,0.005-0.008,0.015-0.016,0.019l-0.035,0.018l-0.043,0.043l-0.063,0.063  l-0.07,0.088l-0.068,0.085l-0.046,0.077l-0.042,0.069l-0.028,0.086c-0.004,0.013-0.018,0.02-0.023,0.031  c-0.004,0.009,0.001,0.02-0.004,0.028l-0.028,0.048l-0.011,0.062c0,0.002-0.003,0.003-0.003,0.005s0.001,0.003,0.001,0.005  l-0.014,0.068V58.285z"/><path fill="#000000" d="M69.804,63.834c0.007,0.002,0.014,0.007,0.021,0.009l0.041,0.011c0.005,0.001,0.006,0.006,0.01,0.008  c0.013,0.003,0.021,0.012,0.032,0.017c0.012,0.009,0.027,0.005,0.038,0.016c0.008,0.008,0.005,0.019,0.011,0.027  c0.003,0.001,0.004,0.003,0.007,0.005c0.031,0.025,0.069,0.041,0.088,0.076c0.003,0.005,0.008,0.005,0.01,0.009l0.039,0.078  c0.007,0.013-0.001,0.028,0.004,0.042c0.008,0.015,0.025,0.02,0.031,0.036l0.039,0.117c0.007,0.02-0.006,0.041-0.003,0.062  c0.012,0.032,0.038,0.056,0.038,0.092v0.098v0.098c0,0.011-0.011,0.018-0.012,0.028s0.008,0.02,0.006,0.03l-0.02,0.098  c-0.001,0.008-0.009,0.011-0.011,0.019c-0.002,0.006,0.003,0.012,0.001,0.018l-0.03,0.092l-0.017,0.097  c-0.002,0.01-0.011,0.014-0.014,0.023c-0.002,0.008,0.005,0.015,0.002,0.022l-0.039,0.117c-0.007,0.021-0.026,0.032-0.038,0.052  c-0.008,0.013-0.002,0.029-0.012,0.041l-0.068,0.085l-0.046,0.077l-0.059,0.098c-0.005,0.008-0.013,0.01-0.018,0.018  c-0.004,0.005-0.001,0.011-0.005,0.016l-0.078,0.098c-0.005,0.006-0.013,0.009-0.019,0.015c-0.002,0.003-0.001,0.007-0.004,0.01  l-0.078,0.078c-0.01,0.01-0.024,0.007-0.035,0.015s-0.011,0.023-0.022,0.03l-0.081,0.049l-0.069,0.052  c-0.009,0.007-0.021,0.004-0.03,0.01c-0.007,0.005-0.008,0.015-0.016,0.019l-0.078,0.039l-0.078,0.039  c-0.019,0.009-0.038,0.009-0.058,0.014c-0.007,0.002-0.01,0.011-0.018,0.012l-0.098,0.02c-0.02,0.004-0.039,0.006-0.059,0.006  h-0.078c-0.023,0-0.048-0.003-0.073-0.009l-0.078-0.02c-0.028-0.007-0.042-0.034-0.065-0.049c-0.002-0.001-0.003-0.001-0.005-0.002  c-0.009-0.003-0.017-0.006-0.025-0.011c-0.013-0.009-0.031-0.006-0.043-0.018c-0.004-0.004-0.003-0.01-0.006-0.014  c-0.005-0.004-0.011-0.007-0.016-0.01c-0.003-0.002-0.006-0.004-0.009-0.006c-0.004-0.003-0.01-0.005-0.014-0.009  c-0.001-0.002-0.001-0.004-0.002-0.005c-0.033-0.022-0.066-0.046-0.09-0.081c-0.003-0.004-0.001-0.011-0.004-0.016l-0.056-0.056  c-0.014-0.014-0.01-0.034-0.021-0.05c-0.021-0.029-0.049-0.052-0.059-0.089l-0.02-0.078l-0.02-0.078  c-0.003-0.014,0.007-0.024,0.006-0.038c-0.002-0.014-0.015-0.021-0.015-0.035v-0.098v-0.098c0-0.01,0.009-0.015,0.01-0.023  c0.001-0.01-0.008-0.017-0.006-0.026l0.02-0.116c0-0.003,0.002-0.005,0.003-0.007c0-0.001-0.001-0.002-0.001-0.003l0.02-0.098  c0.002-0.012,0.015-0.016,0.019-0.026c0.003-0.012-0.005-0.022,0-0.033l0.059-0.137c0.001-0.003,0.005-0.003,0.006-0.006  c0.002-0.003-0.001-0.007,0.001-0.01l0.038-0.076l0.025-0.06l-4.38,2.525l-0.058,0.43l-0.018,0.795l0.075,0.755l0.146,0.673  l0.251,0.574l0.321,0.5l0.362,0.362l0.437,0.279l0.5,0.173l0.571,0.089l0.602-0.035l0.647-0.167l0.654-0.254l0.68-0.378l0.717-0.49  l0.684-0.57l0.637-0.655l0.612-0.766l0.581-0.832l0.509-0.81l0.438-0.913l0.365-0.923l0.288-0.905l0.225-0.858l0.018-0.176  c0-0.001,0-0.001,0.001-0.001l0.057-0.705c0-0.001,0-0.001,0-0.001l0.038-0.797l-0.034-0.335L69.804,63.834z"/><path fill="#000000" d="M69.61,64.604v-0.068v-0.05l-0.004-0.012l-0.026-0.077l-0.019-0.007c-0.005-0.002-0.007-0.008-0.012-0.01  c-0.01,0.004-0.021,0.005-0.032,0.008c-0.007,0.002-0.01,0.011-0.018,0.012l-0.03,0.006l-0.024,0.019  c-0.009,0.007-0.021,0.004-0.03,0.01c-0.007,0.005-0.008,0.015-0.016,0.019l-0.035,0.018l-0.043,0.043  c-0.004,0.005-0.011,0.003-0.016,0.007s-0.004,0.012-0.009,0.016l-0.098,0.078c-0.002,0.001-0.004,0.001-0.006,0.002  c-0.001,0.001-0.001,0.003-0.002,0.004l-0.047,0.035l-0.027,0.035l-0.022,0.055c-0.001,0.002-0.002,0.002-0.003,0.004  c0,0.001,0,0.002,0,0.003l-0.059,0.137c-0.001,0.003-0.005,0.005-0.006,0.008c-0.002,0.002,0,0.005-0.001,0.008l-0.038,0.076  l-0.04,0.094l-0.012,0.058c0,0.001,0,0.001,0,0.001l-0.016,0.093v0.072v0.06l0.011,0.043V65.4c0.008,0.008,0.005,0.019,0.012,0.027  c0.007,0.008,0.019,0.006,0.025,0.016l0.006,0.008l0.008,0.006c0.003,0.002,0.002,0.006,0.005,0.008l0.022-0.005l0.044-0.021  l0.054-0.026l0.057-0.043c0.005-0.004,0.011-0.001,0.016-0.004s0.005-0.01,0.01-0.013l0.066-0.04l0.037-0.037l0.061-0.075  l0.046-0.077l0.059-0.098c0.004-0.006,0.013-0.006,0.017-0.012c0.004-0.007,0.001-0.016,0.006-0.021l0.046-0.057l0.013-0.04  l0.017-0.097c0.002-0.01,0.011-0.014,0.014-0.023c0.002-0.008-0.005-0.015-0.002-0.022l0.032-0.099L69.61,64.604z"/><path fill="#000000" d="M63.717,69.94c-0.004-0.012-0.015-0.018-0.018-0.029l-0.156-0.723c-0.001-0.006,0.004-0.011,0.003-0.017  s-0.008-0.01-0.009-0.017l-0.078-0.781c-0.001-0.007,0.006-0.013,0.006-0.02s-0.007-0.011-0.007-0.018l0.02-0.84  c0-0.007,0.006-0.009,0.007-0.015c0-0.001-0.001-0.002-0.001-0.003l-2.346,1.357l0.359,0.229l2.446,1.418l-0.226-0.517  C63.714,69.959,63.721,69.949,63.717,69.94z"/><polygon fill="#000000" points="93.074,21.113 90.568,22.568 56.193,42.412 56.192,42.412 56.191,42.413 56.19,42.413   54.006,43.691 56.042,44.854 95.114,22.307 "/><path fill="#000000" d="M75.827,62.949c-0.004-0.013-0.017-0.02-0.02-0.032l-0.156-0.742c-0.001-0.006,0.004-0.01,0.003-0.016  s-0.007-0.01-0.008-0.016l-0.078-0.781c-0.001-0.007,0.006-0.013,0.006-0.02s-0.007-0.011-0.007-0.018l0.02-0.82  c0-0.005,0.003-0.009,0.003-0.013l-0.58,0.34l0.062,0.626c0.001,0.009-0.007,0.015-0.007,0.022c0,0.009,0.008,0.014,0.008,0.022  l-0.039,0.82c0,0.002-0.002,0.003-0.003,0.005c0,0.002,0.002,0.003,0.002,0.005l-0.043,0.534l1.071,0.628l-0.233-0.517  C75.823,62.969,75.83,62.959,75.827,62.949z"/><polygon fill="#000000" points="53.706,69.715 54.887,70.409 54.888,70.41 55.743,70.908 55.743,45.373 53.706,44.212 "/><path fill="#000000" d="M81.931,56.832c0.021,0.007,0.033,0.027,0.052,0.039c0.024,0.014,0.053,0.01,0.073,0.03l0.059,0.059  c0.011,0.011,0.009,0.029,0.019,0.042c0.041,0.039,0.085,0.077,0.1,0.136l0.005,0.021l0.022,0.029  c0.021,0.027,0.014,0.062,0.023,0.094c0.011,0.03,0.036,0.053,0.036,0.086v0.098v0.098v0.098v0.098c0,0.029-0.023,0.048-0.031,0.075  c-0.007,0.026,0.003,0.054-0.012,0.079l-0.028,0.048l-0.011,0.062c-0.002,0.013-0.015,0.02-0.018,0.031  c-0.003,0.011,0.004,0.021,0,0.031l-0.039,0.098c-0.002,0.005-0.007,0.007-0.009,0.011s0.001,0.008-0.001,0.012l-0.059,0.117  c-0.007,0.013-0.02,0.019-0.027,0.029c-0.005,0.008-0.001,0.018-0.007,0.024L82.01,58.46l-0.046,0.077  c-0.009,0.015-0.024,0.021-0.035,0.034c-0.006,0.007-0.003,0.017-0.01,0.023l-0.063,0.063l-0.07,0.088  c-0.032,0.041-0.074,0.068-0.119,0.087c-0.002,0.001-0.002,0.003-0.004,0.004l-0.041,0.017l-0.034,0.034  c-0.013,0.013-0.031,0.009-0.045,0.019c-0.015,0.011-0.017,0.03-0.033,0.038l-0.078,0.039l-0.078,0.039  c-0.043,0.021-0.089,0.031-0.134,0.031h-0.078h-0.078h-0.078c-0.058,0-0.115-0.016-0.166-0.05c-0.01-0.006-0.016-0.017-0.024-0.024  c-0.039-0.021-0.071-0.038-0.097-0.073c-0.002-0.001-0.003-0.002-0.004-0.003c-0.012-0.009-0.027-0.005-0.038-0.016  c-0.007-0.007-0.005-0.018-0.011-0.024c-0.02-0.016-0.041-0.026-0.057-0.047l-0.059-0.078c-0.011-0.014-0.004-0.032-0.012-0.048  c-0.012-0.021-0.033-0.034-0.039-0.059l-0.02-0.078c-0.001-0.003,0.002-0.005,0.001-0.008c0-0.003-0.003-0.004-0.004-0.007  l-0.02-0.098c-0.002-0.011,0.007-0.02,0.006-0.03s-0.012-0.018-0.012-0.028v-0.098v-0.098c0-0.011,0.011-0.018,0.012-0.028  s-0.008-0.02-0.006-0.03l0.018-0.088c0-0.001,0-0.001,0-0.001l0.02-0.116c0.008-0.046,0.026-0.087,0.05-0.124l0.031-0.051  l0.028-0.086c0.004-0.012,0.018-0.015,0.022-0.025c0.005-0.012-0.002-0.023,0.005-0.034l0.01-0.016l-4.377,2.523l-0.058,0.43  l-0.018,0.775l0.074,0.751l0.146,0.696l0.251,0.555l0.323,0.503l0.366,0.384l0.449,0.294l0.494,0.17l0.557,0.054l0.606-0.018  l0.635-0.163l0.671-0.28l0.716-0.376l0.67-0.466l0.685-0.589l0.645-0.664l0.605-0.737l0.582-0.814l0.531-0.854l0.416-0.889  c0-0.001,0-0.001,0-0.001l0.387-0.908l0.303-0.889l0.188-0.907l0.114-0.856v-0.813l-0.033-0.329L81.931,56.832z"/><path fill="#000000" d="M95.563,24.542L95.563,24.542l-0.841-0.478c-0.001,0-0.002,0-0.003,0l-0.043-0.011h-0.024  c-0.011,0.003-0.015,0.014-0.025,0.016l-0.063,0.011c-0.004,0.002-0.003,0.007-0.007,0.009l-0.066,0.04l-0.052,0.052  c-0.006,0.006-0.015,0.003-0.021,0.009c-0.006,0.005-0.005,0.015-0.012,0.02l-0.036,0.027l-0.05,0.074  c-0.002,0.003-0.006,0.004-0.008,0.008c-0.002,0.002-0.001,0.004-0.002,0.006l-0.053,0.07l-0.074,0.111  c-0.002,0.003-0.006,0.004-0.008,0.008c-0.002,0.002-0.001,0.004-0.002,0.006l-0.026,0.035l-0.023,0.082  c-0.002,0.006-0.008,0.009-0.01,0.015c-0.002,0.005,0.002,0.01,0,0.015l-0.039,0.098l-0.018,0.044v0.06  c0,0.011-0.011,0.018-0.012,0.028s0.008,0.02,0.006,0.03l-0.008,0.039l0.008,0.039c0.002,0.011-0.007,0.02-0.006,0.03  s0.012,0.018,0.012,0.028v0.021l0.005,0.013c0.007,0.008,0.018,0.008,0.023,0.016c0.001,0.002,0,0.004,0.001,0.006l0.01,0.006  l1.581,0.921l0.011-0.054c0-0.001,0-0.001,0-0.001l0.02-0.116c0-0.003,0.002-0.005,0.003-0.007c0-0.001-0.001-0.002-0.001-0.003  l0.02-0.098c0.003-0.014,0.018-0.02,0.022-0.033s-0.004-0.028,0.003-0.042l0.059-0.117l0.059-0.117  c0.005-0.009,0.016-0.01,0.021-0.019c0.005-0.009,0.001-0.02,0.007-0.027l0.053-0.07l0.074-0.111c0.007-0.01,0.02-0.009,0.026-0.018  s0.004-0.021,0.012-0.028l0.062-0.062l0.047-0.062c0.012-0.016,0.031-0.014,0.045-0.026c0.013-0.013,0.014-0.033,0.029-0.044  l0.028-0.019L95.563,24.542z"/><path fill="#000000" d="M96.909,25.337l-0.004-0.004l-0.002-0.002c-0.009-0.002-0.013-0.013-0.021-0.016  c-0.01,0.004-0.019,0.004-0.027,0.007c-0.007,0.002-0.01,0.01-0.017,0.012l-0.037,0.01l-0.046,0.027l-0.059,0.039l-0.074,0.05  l-0.027,0.036c-0.006,0.008-0.016,0.012-0.022,0.019c-0.004,0.004-0.002,0.01-0.006,0.014l-0.056,0.056l-0.062,0.094  c-0.002,0.003-0.006,0.004-0.008,0.008c-0.002,0.002-0.001,0.004-0.002,0.006l-0.043,0.057l-0.046,0.093l-0.041,0.083l-0.01,0.047  c0,0.001,0,0.001,0,0.001l-0.02,0.116c0,0.002-0.003,0.003-0.003,0.005s0.001,0.003,0.001,0.005l-0.014,0.068v0.068v0.068  l0.011,0.054l0.009,0.034c0.007,0.004,0.015-0.001,0.022,0.004l0.009,0.006l0.004-0.001l0.077-0.025l0.027-0.019  c0.002-0.002,0.006,0,0.008-0.002c0.002-0.001,0.002-0.004,0.004-0.005l0.081-0.049l0.054-0.04l0.062-0.062  c0.004-0.005,0.011-0.003,0.016-0.007s0.004-0.012,0.009-0.016l0.036-0.029l0.01-0.023c0.006-0.015,0.023-0.019,0.031-0.031  c0.008-0.015,0.002-0.032,0.013-0.045l0.059-0.073l0.04-0.08l0.028-0.071l0.034-0.119c0.003-0.01,0.014-0.013,0.018-0.022  s-0.003-0.02,0.002-0.029l0.018-0.035l0.01-0.067v-0.076v-0.046l-0.027-0.055L96.909,25.337z"/><path fill="#000000" d="M93.778,25.628c-0.004-0.002-0.008-0.001-0.011-0.003c-0.013-0.009-0.021-0.021-0.032-0.032  c-0.042-0.019-0.08-0.046-0.11-0.091l-0.023-0.035l-0.017-0.017c-0.011-0.011-0.007-0.026-0.016-0.038  c-0.017-0.021-0.04-0.036-0.051-0.062l-0.039-0.098c-0.008-0.02,0.004-0.038,0.001-0.058c-0.004-0.02-0.022-0.032-0.022-0.054  v-0.049l-0.014-0.068c-0.004-0.021,0.012-0.038,0.012-0.059s-0.016-0.037-0.012-0.059l0.014-0.068V24.75  c0-0.021,0.019-0.034,0.022-0.054c0.003-0.02-0.009-0.038-0.001-0.058l0.039-0.098l0.034-0.086l0.034-0.119  c0.005-0.02,0.025-0.026,0.034-0.043c0.008-0.018,0.001-0.038,0.014-0.055l0.053-0.07l0.074-0.111  c0.002-0.003,0.006-0.002,0.008-0.005s0-0.006,0.002-0.009l0.053-0.07l0.074-0.111c0.011-0.016,0.03-0.016,0.043-0.029  c0.013-0.013,0.012-0.033,0.027-0.045l0.062-0.047l0.062-0.062c0.01-0.01,0.024-0.007,0.035-0.015s0.011-0.023,0.022-0.03  l0.086-0.052l0.059-0.039c0.02-0.013,0.042-0.005,0.063-0.013c0.021-0.008,0.031-0.029,0.054-0.033l0.097-0.017l0.033-0.011  c0.017-0.006,0.032,0.006,0.049,0.003s0.028-0.019,0.046-0.019h0.078c0.014,0,0.021,0.013,0.035,0.015  c0.014,0.001,0.024-0.009,0.038-0.006l0.078,0.02c0.003,0.001,0.004,0.004,0.007,0.005c0.005,0.001,0.01,0,0.015,0.002l0.059,0.02  c0.011,0.003,0.013,0.015,0.022,0.02c0.011,0.005,0.021-0.002,0.031,0.004l0.411,0.233v-0.938L56.343,45.373V70.91l4.12-2.377  l3.242-1.875h0.001l10.838-6.249l1.27-0.742h0.001c0.001,0,0.001-0.001,0.001-0.001l10.838-6.249c0.001,0,0.001-0.001,0.001-0.001  l8.757-5.07V26.582l-1.629-0.948C93.78,25.633,93.78,25.629,93.778,25.628z M93.844,46.351c0.008-0.011,0.005-0.025,0.015-0.035  l0.063-0.063l0.07-0.088c0.009-0.012,0.024-0.01,0.035-0.02c0.01-0.01,0.008-0.024,0.02-0.033l0.078-0.059  c0.005-0.004,0.011-0.001,0.016-0.004c0.005-0.004,0.005-0.01,0.01-0.013l0.098-0.059c0.011-0.007,0.023,0,0.034-0.005  c0.011-0.006,0.014-0.019,0.025-0.022c0.005-0.002,0.011,0.002,0.016,0.001c0.002-0.001,0.002-0.004,0.004-0.005l0.117-0.059  c0.022-0.012,0.047,0,0.07-0.005c0.022-0.006,0.038-0.026,0.063-0.026c0.014,0,0.026,0.006,0.04,0.008  c0.007-0.001,0.011-0.008,0.019-0.008h0.078h0.078c0.018,0,0.028,0.016,0.046,0.019c0.017,0.003,0.032-0.009,0.049-0.003  c0.041,0.014,0.079,0.037,0.112,0.065c0.021,0.013,0.046,0.009,0.063,0.026l0.059,0.059c0.003,0.003,0.002,0.009,0.005,0.012  c0.015,0.016,0.03,0.028,0.042,0.046c0.022,0.022,0.054,0.03,0.068,0.06l0.039,0.078c0.005,0.011-0.002,0.022,0.002,0.033  c0.005,0.011,0.018,0.016,0.021,0.027l0.02,0.078c0.003,0.014-0.007,0.024-0.006,0.038c0.002,0.014,0.015,0.021,0.015,0.035v0.068  l0.014,0.068c0.004,0.021-0.012,0.038-0.012,0.059s0.016,0.037,0.012,0.059l-0.014,0.068v0.068c0,0.01-0.009,0.015-0.01,0.023  c-0.001,0.01,0.008,0.017,0.006,0.026l-0.02,0.116c-0.002,0.013-0.015,0.02-0.018,0.031c-0.003,0.011,0.004,0.021,0,0.031  l-0.039,0.098c-0.002,0.005-0.007,0.007-0.009,0.011s0.001,0.008-0.001,0.012l-0.059,0.117c-0.002,0.005-0.008,0.007-0.011,0.011  c-0.001,0.004,0.001,0.007-0.001,0.01l-0.059,0.098l-0.059,0.098c-0.005,0.008-0.013,0.01-0.018,0.018  c-0.004,0.005-0.001,0.011-0.005,0.016l-0.078,0.098l-0.078,0.098l-0.053,0.07c-0.017,0.022-0.04,0.034-0.061,0.051  c-0.007,0.005-0.007,0.015-0.014,0.02l-0.117,0.078c-0.015,0.01-0.031,0.007-0.047,0.014c-0.011,0.009-0.011,0.025-0.023,0.032  l-0.098,0.059c-0.018,0.011-0.037,0.009-0.056,0.016c-0.011,0.004-0.015,0.016-0.025,0.019l-0.078,0.02  c-0.024,0.006-0.05,0.009-0.073,0.009h-0.078H94.07c-0.013,0-0.024-0.006-0.037-0.007c-0.008,0-0.014,0.007-0.021,0.007  c-0.023,0-0.048-0.003-0.073-0.009l-0.078-0.02c-0.028-0.007-0.042-0.034-0.065-0.049c-0.024-0.014-0.053-0.01-0.073-0.03  l-0.059-0.059c-0.007-0.007-0.005-0.019-0.012-0.025c-0.031-0.026-0.064-0.053-0.084-0.092l-0.039-0.078l-0.039-0.078  c-0.012-0.022,0-0.046-0.005-0.07c-0.006-0.022-0.026-0.038-0.026-0.063v-0.068l-0.014-0.068c-0.002-0.011,0.007-0.02,0.006-0.03  s-0.012-0.018-0.012-0.028V47.25c0-0.011,0.011-0.018,0.012-0.028s-0.008-0.02-0.006-0.03l0.02-0.098  c0.002-0.01,0.013-0.014,0.016-0.023s-0.004-0.02,0-0.029l0.037-0.093l0.035-0.105c0.001-0.003,0.005-0.004,0.006-0.007  s-0.001-0.007,0-0.01l0.039-0.098c0.002-0.004,0.007-0.005,0.009-0.009c0.002-0.005-0.001-0.009,0.001-0.014l0.059-0.117  c0.005-0.011,0.019-0.012,0.025-0.022c0.006-0.01,0.001-0.021,0.009-0.031l0.068-0.085l0.046-0.077  C93.82,46.361,93.836,46.361,93.844,46.351z"/><path fill="#000000" d="M94.046,47.417c0.001,0.011,0.012,0.018,0.012,0.028v0.026l0.008,0.016l0.015,0.029h0.068h0.04l0.002-0.001  l0.046-0.027l0.059-0.039l0.074-0.05l0.027-0.036c0.001-0.002,0.003-0.001,0.004-0.003c0.002-0.001,0.001-0.003,0.002-0.005  l0.078-0.098l0.068-0.085l0.046-0.077l0.05-0.083l0.052-0.104l0.021-0.052l0.011-0.062v-0.072c0-0.011,0.011-0.018,0.012-0.028  s-0.008-0.02-0.006-0.03l0.008-0.039l-0.008-0.039c-0.002-0.011,0.007-0.02,0.006-0.03s-0.012-0.018-0.012-0.028v-0.06l-0.003-0.011  c-0.001,0-0.002,0-0.003-0.001h-0.007h-0.065l-0.055,0.027c-0.01,0.005-0.02,0.003-0.029,0.007c-0.005,0.002-0.005,0.007-0.01,0.009  l-0.027,0.009l-0.053,0.032l-0.038,0.028l-0.055,0.068c-0.005,0.006-0.013,0.009-0.019,0.015c-0.002,0.003-0.001,0.007-0.004,0.01  l-0.052,0.052l-0.04,0.066c-0.005,0.008-0.013,0.01-0.018,0.018c-0.004,0.005-0.001,0.011-0.005,0.016l-0.059,0.073l-0.04,0.08  l-0.031,0.078l-0.035,0.105c-0.001,0.003-0.005,0.005-0.006,0.008s0.001,0.006,0,0.009l-0.029,0.072l-0.008,0.041v0.039l0.014,0.068  C94.054,47.397,94.045,47.406,94.046,47.417z"/><path fill="#000000" d="M53.254,70.145l-2.736-1.553l-4.011,2.335c-0.001,0-0.001,0-0.002,0.001l-4.199,2.422l-4.199,2.422  l-4.178,2.401l-1.331,0.775l1.993,1.147c0.002,0.001,0.002,0.004,0.004,0.006c0.003,0.001,0.006-0.001,0.009,0.001l0.488,0.312  c0.012,0.008,0.012,0.022,0.021,0.031c0.01,0.008,0.024,0.005,0.033,0.015l0.41,0.43c0.006,0.006,0.003,0.016,0.008,0.021  c0.006,0.007,0.016,0.006,0.021,0.013l0.214,0.304l18.339-10.562L53.254,70.145C53.254,70.146,53.254,70.146,53.254,70.145z"/><polygon fill="#000000" points="41.557,51.449 27.822,43.516 26.879,44.071 26.876,44.072 24.24,45.59 37.958,53.524 "/><polygon fill="#000000" points="35.539,55.22 21.777,47.278 19.771,59.809 33.55,67.768 "/><polygon fill="#000000" points="33.478,68.729 18.647,76.049 18.647,80.244 33.478,72.904 "/><path fill="#000000" d="M22.179,82.647c0.003-0.005,0.009-0.006,0.012-0.011c0.003-0.006,0-0.012,0.003-0.017l0.527-0.859  c0.002-0.003,0.007-0.003,0.009-0.007c0.003-0.003,0.001-0.008,0.003-0.011l0.586-0.82c0.002-0.003,0.006-0.002,0.008-0.005  c0.001-0.002,0-0.006,0.002-0.008l0.625-0.781c0.004-0.005,0.012-0.004,0.016-0.009s0.003-0.011,0.007-0.016l0.684-0.684  c0.004-0.003,0.009-0.002,0.013-0.005c0.004-0.004,0.003-0.01,0.007-0.014l0.703-0.586c0.003-0.002,0.006-0.001,0.009-0.003  c0.002-0.001,0.002-0.005,0.004-0.007l0.703-0.527c0.007-0.006,0.017-0.002,0.024-0.006c0.007-0.005,0.008-0.016,0.016-0.02  l0.742-0.391c0.007-0.004,0.015,0.001,0.022-0.002c0.007-0.003,0.008-0.012,0.016-0.015l0.703-0.254  c0.005-0.002,0.009,0.002,0.014,0.001c0.006-0.002,0.007-0.008,0.013-0.01l0.684-0.176c0.011-0.002,0.02,0.006,0.03,0.005  c0.011-0.002,0.017-0.013,0.027-0.014l0.664-0.039c0.011,0,0.018,0.009,0.028,0.01c0.01,0,0.018-0.009,0.027-0.008l0.605,0.078  c0.012,0.001,0.018,0.014,0.028,0.017c0.011,0.002,0.021-0.006,0.031-0.002l0.566,0.195c0.011,0.004,0.013,0.016,0.022,0.02  c0.011,0.005,0.021-0.001,0.031,0.005l1.462,0.856l1.622-0.803v-4.156l-14.83,7.34v4.156l3.108-1.537L22.179,82.647z"/><polygon fill="#000000" points="18.048,76.037 6.519,69.408 6.519,73.541 18.048,80.207 "/><polygon fill="#000000" points="37.657,54.388 36.141,55.252 34.077,68.269 34.077,73.09 34.077,77.396 37.657,75.338 "/><polygon fill="#000000" points="35.658,82.359 35.442,81.764 35.106,81.287 34.739,80.903 34.307,80.626 33.803,80.452   33.26,80.364 32.653,80.418 31.986,80.566 31.31,80.822 30.633,81.198 29.938,81.687 29.274,82.255 28.61,82.938 27.985,83.696   27.402,84.512 26.916,85.335 26.916,85.336 26.455,86.239 26.109,87.16 25.804,88.057 25.596,88.927 25.503,89.804 25.484,90.594   25.559,91.346 25.722,92.016 25.961,92.604 26.279,93.099 26.644,93.479 27.076,93.757 27.573,93.929 28.123,93.999 28.736,93.963   29.389,93.818 30.06,93.539 30.747,93.167 31.445,92.677 32.11,92.106 32.771,91.445 33.402,90.7 33.979,89.873 34.467,89.048   34.467,89.047 34.93,88.141 35.272,87.245 35.559,86.331 35.766,85.444 35.881,84.584 35.898,83.77 35.824,83.022 "/><polygon fill="#000000" points="18.048,80.9 6.519,74.234 6.519,77.289 6.519,78.386 18.048,85.032 "/><path fill="#000000" d="M21.333,84.53c0.002-0.005-0.002-0.009,0-0.014l0.058-0.137l-2.91,1.439  c-0.043,0.021-0.088,0.031-0.133,0.031c-0.051,0-0.103-0.013-0.149-0.04l-0.006-0.003c0-0.001-0.001-0.001-0.002-0.001L6.069,78.818  c-0.013-0.008-0.014-0.023-0.024-0.031c-0.032-0.024-0.049-0.055-0.068-0.09c-0.02-0.034-0.037-0.062-0.042-0.102  c-0.002-0.014-0.016-0.022-0.016-0.037v-0.756l-0.854,0.484l13.732,7.933l2.444-1.417l0.082-0.261  C21.325,84.537,21.331,84.535,21.333,84.53z"/><path fill="#000000" d="M5.919,73.715v-3.887L5.898,69.85l-0.612,0.727l-0.574,0.822l-0.496,0.822L3.76,73.132l-0.364,0.92  l-0.286,0.897L2.9,75.821l-0.093,0.876c0,0.001,0,0.001,0,0.001L2.77,77.495l0.074,0.74l0.164,0.657l0.255,0.601l0.305,0.483  l0.383,0.4l0.211,0.141v-2.232c0-0.016,0.014-0.024,0.016-0.039c0.004-0.026,0.009-0.047,0.02-0.071  c0.005-0.014-0.002-0.027,0.005-0.04c0.008-0.013,0.023-0.014,0.032-0.024c0.017-0.022,0.032-0.037,0.055-0.054  c0.012-0.009,0.013-0.025,0.025-0.032l1.605-0.91V73.715z"/><polygon fill="#000000" points="35.868,54.717 37.354,53.869 23.641,45.937 22.15,46.801 "/><path fill="#000000" d="M25.159,92.204c-0.003-0.008-0.011-0.011-0.013-0.02l-0.176-0.723c-0.002-0.007,0.004-0.013,0.003-0.02  c-0.001-0.009-0.01-0.013-0.011-0.021l-0.078-0.781c-0.001-0.007,0.006-0.013,0.006-0.02s-0.007-0.011-0.007-0.018l0.02-0.82  c0-0.006,0.004-0.012,0.004-0.018c0-0.003-0.002-0.004-0.002-0.007l0.098-0.918c0.001-0.01,0.006-0.018,0.008-0.027  c0.001-0.004-0.003-0.007-0.002-0.011l0.215-0.898c0.001-0.005,0.007-0.007,0.009-0.013c0.002-0.005-0.003-0.01-0.001-0.015  l0.312-0.918c0.001-0.002,0.003-0.002,0.003-0.004c0.001-0.001-0.001-0.003,0-0.005l0.352-0.938c0.002-0.006,0.01-0.007,0.012-0.013  c0.003-0.006-0.001-0.013,0.002-0.019l0.469-0.918c0.002-0.004,0.007-0.004,0.009-0.007c0.001-0.003-0.001-0.006,0.001-0.009  l0.508-0.859c0.002-0.004,0.008-0.004,0.01-0.008c0.004-0.004,0.001-0.01,0.004-0.015l0.586-0.82  c0.002-0.003,0.007-0.003,0.01-0.006c0.002-0.003,0.001-0.007,0.003-0.01l0.645-0.781c0.003-0.004,0.009-0.003,0.012-0.006  c0.003-0.004,0.002-0.009,0.005-0.013l0.684-0.703c0.004-0.004,0.01-0.002,0.013-0.006c0.004-0.003,0.003-0.01,0.007-0.013  l0.684-0.586c0.004-0.004,0.01-0.001,0.015-0.005c0.004-0.003,0.003-0.01,0.008-0.013l0.723-0.508  c0.005-0.003,0.012-0.001,0.017-0.004s0.005-0.011,0.011-0.014l0.703-0.391c0.007-0.004,0.016,0.001,0.023-0.003  c0.007-0.003,0.009-0.012,0.016-0.015l0.723-0.273c0.008-0.003,0.015,0.003,0.022,0.001c0.008-0.003,0.011-0.012,0.019-0.014  l0.703-0.156c0.008-0.002,0.014,0.005,0.021,0.004c0.007-0.002,0.011-0.009,0.018-0.01l0.292-0.025l-1.008-0.58L31.71,79.14  c-0.003-0.001-0.003-0.005-0.006-0.007c-0.004-0.002-0.008-0.001-0.012-0.003l-0.004-0.002c-0.001-0.001-0.001-0.001-0.002-0.001  l-1.571-0.92l-0.505-0.175l-0.55-0.07l-0.606,0.035l-0.649,0.167l-0.663,0.239l-0.704,0.371l-0.674,0.505l-0.694,0.579l-0.655,0.655  l-0.61,0.764l-0.576,0.807l-0.516,0.839l-0.441,0.922c0,0.001-0.001,0.001-0.002,0.002c0,0.001,0,0.001,0,0.002  c-0.003,0.005-0.009,0.008-0.012,0.013c-0.001,0.003,0.001,0.006,0,0.009l-0.364,0.862l-0.114,0.362  c0,0.001-0.001,0.001-0.001,0.001l-0.15,0.527l-0.189,0.891l-0.135,0.883l-0.018,0.795l0.074,0.751l0.145,0.648l0.101,0.201  c0.002,0.005-0.001,0.009,0.001,0.014c0.002,0.004,0.007,0.005,0.009,0.009l0.146,0.365l0.318,0.494l0.361,0.361l0.479,0.295  c0,0,0,0.001,0.001,0.001l2.459,1.437l-0.22-0.541C25.156,92.219,25.162,92.212,25.159,92.204z"/><polygon fill="#000000" points="4.761,81.039 4.761,82.975 18.497,90.873 18.497,86.74 4.761,78.805 "/><path fill="#000000" d="M19.097,86.739v4.132l1.852-1.068c-0.001-0.004,0.001-0.007,0-0.011c-0.006-0.014-0.02-0.021-0.022-0.035  l-0.156-0.703c-0.001-0.007,0.004-0.011,0.003-0.018s-0.008-0.011-0.009-0.018l-0.078-0.781c-0.001-0.007,0.006-0.013,0.006-0.02  s-0.007-0.011-0.007-0.018l0.02-0.84c0-0.009,0.005-0.016,0.007-0.024c0-0.005-0.005-0.009-0.004-0.014l0.137-0.898  c0.001-0.004,0.005-0.006,0.006-0.009c0-0.003-0.003-0.006-0.002-0.009l0.165-0.777L19.097,86.739z"/><polygon fill="#000000" points="45.756,49.009 32.019,41.11 29.515,42.527 29.515,42.528 28.418,43.167 42.156,51.103 "/><polygon fill="#000000" points="46.655,70.146 49.92,68.246 46.655,66.346 "/><polygon fill="#000000" points="46.056,65.824 46.056,49.529 42.456,51.622 42.456,72.571 46.056,70.495 "/><path fill="#000000" d="M50.664,67.985l2.442,1.386V43.869L29.663,30.328v11.428l2.209-1.251c0.012-0.007,0.026,0,0.039-0.005  c0.036-0.015,0.068-0.014,0.108-0.014s0.073-0.001,0.11,0.015c0.013,0.005,0.026-0.002,0.039,0.005l14.336,8.242  c0.013,0.007,0.014,0.023,0.024,0.032c0.021,0.017,0.037,0.031,0.054,0.053c0.009,0.011,0.024,0.012,0.032,0.024  s0,0.027,0.006,0.041c0.01,0.024,0.016,0.045,0.019,0.072c0.002,0.014,0.016,0.022,0.016,0.037v16.645L50.664,67.985  C50.664,67.985,50.664,67.985,50.664,67.985z"/><polygon fill="#000000" points="92.476,20.767 69.051,7.245 66.993,8.44 90.418,21.962 "/><polygon fill="#000000" points="27.669,42.909 29.063,42.098 29.063,29.982 27.026,28.805 27.026,43.287 27.668,42.909 "/><polygon fill="#000000" points="41.856,51.968 38.257,54.044 38.257,74.993 41.856,72.917 "/><polygon fill="#000000" points="89.817,22.309 66.395,8.788 32.62,28.285 56.043,41.806 "/><polygon fill="#000000" points="29.364,29.463 31.868,28.026 31.869,28.025 66.244,8.182 68.453,6.898 66.395,5.702 27.326,28.285   "/><polygon fill="#000000" points="55.446,42.154 32.019,28.631 29.965,29.81 53.405,43.349 "/></svg>